<svg xmlns="http://www.w3.org/2000/svg" xmlns:xlink="http://www.w3.org/1999/xlink" width="500" zoomAndPan="magnify" viewBox="0 0 375 374.999991" height="500" preserveAspectRatio="xMidYMid meet" version="1.0"><defs><clipPath id="id1"><path d="M 18.550781 6.367188 L 355 6.367188 L 355 368.617188 L 18.550781 368.617188 Z M 18.550781 6.367188 " clip-rule="nonzero"/></clipPath></defs><g clip-path="url(#id1)"><path fill="#36e9fd" d="M 178.023438 366.574219 C 125.503906 340.585938 93.105469 316.0625 76.066406 289.390625 C 61.722656 266.921875 60.136719 244.945312 60.890625 226.109375 C 51.089844 224.476562 41.082031 222.367188 31.117188 219.835938 L 18.574219 216.671875 L 60.851562 150.914062 C 54.671875 108.148438 40.046875 88.589844 39.894531 88.402344 L 33.386719 80.238281 L 42.347656 74.734375 C 83.613281 49.375 103.121094 11.847656 103.316406 11.46875 L 105.917969 6.367188 L 258.398438 6.367188 L 260.992188 11.460938 C 261.1875 11.839844 280.6875 49.382812 321.96875 74.75 L 330.976562 80.246094 L 324.359375 88.488281 C 324.25 88.628906 310.570312 106.984375 304.0625 147.121094 L 318.636719 131.75 C 320.84375 129.417969 323.957031 128.128906 327.398438 128.128906 C 329.546875 128.128906 331.839844 128.632812 334.214844 129.613281 C 337.6875 131.050781 341.460938 133.59375 344.816406 136.765625 C 348.1875 139.953125 350.941406 143.570312 352.558594 146.957031 C 356.773438 155.75 352.644531 161.144531 351.277344 162.585938 L 311.609375 204.449219 C 322.929688 219.027344 325.449219 229.808594 319.101562 236.511719 L 313.714844 242.191406 C 312.042969 243.980469 308.992188 246.132812 304.046875 246.132812 C 303.734375 246.132812 303.410156 246.125 303.089844 246.097656 C 301.933594 259.148438 298.035156 277.660156 282.136719 298.042969 C 264.074219 321.203125 232.730469 343.617188 186.324219 366.574219 L 182.191406 368.617188 Z M 178.023438 366.574219 " fill-opacity="1" fill-rule="nonzero"/></g><path fill="#889baa" d="M 99.542969 275.265625 C 97.777344 278.5 94.578125 284.679688 91.722656 291.847656 C 72.695312 267.753906 71.070312 245.046875 72.5625 220.535156 C 78.09375 221.273438 83.558594 221.871094 88.949219 222.296875 C 88.117188 236.175781 88.421875 247.292969 91.984375 258.472656 C 90.011719 262.132812 88.34375 265.96875 86.875 269.894531 L 86.082031 272.046875 L 88.34375 272.582031 Z M 251.449219 17.726562 L 112.867188 17.726562 C 109.242188 24.351562 89.257812 58.550781 50.175781 83.242188 C 54.203125 89.140625 66.007812 109.128906 71.800781 147.292969 L 84.769531 127.125 C 81.648438 113.335938 77.535156 100.777344 72.5 89.808594 L 71.824219 88.316406 L 73.128906 87.320312 C 98.328125 68.121094 114.328125 46.375 121.605469 35.109375 L 122.210938 34.175781 L 242.089844 34.175781 L 242.695312 35.109375 C 249.980469 46.367188 265.976562 68.121094 291.175781 87.320312 L 292.480469 88.316406 L 291.804688 89.808594 C 288.902344 96.160156 286.269531 103.089844 283.976562 110.472656 L 287.300781 111.265625 L 286.503906 113.429688 C 286.308594 113.957031 284.101562 119.855469 279.1875 128.695312 C 276.234375 142.183594 274.269531 156.808594 273.378906 172.1875 C 273.253906 174.230469 273.175781 176.304688 273.136719 178.46875 C 275.761719 180.199219 278.101562 181.910156 279.832031 183.234375 L 289.832031 172.683594 C 293.140625 117.796875 309.273438 90.355469 314.117188 83.257812 C 275.0625 58.550781 255.074219 24.351562 251.449219 17.726562 Z M 251.449219 17.726562 " fill-opacity="1" fill-rule="nonzero"/><path fill="#38485f" d="M 281.601562 172.660156 C 280.832031 185.714844 281.789062 197.925781 282.710938 209.734375 C 284.546875 233.136719 286.144531 253.355469 274.21875 274.667969 C 261.253906 297.902344 232.679688 320.691406 186.875 344.332031 L 182.152344 346.773438 L 177.425781 344.332031 C 131.621094 320.691406 103.058594 297.902344 90.082031 274.667969 C 78.15625 253.347656 79.753906 233.136719 81.585938 209.742188 C 82.519531 197.925781 83.480469 185.714844 82.707031 172.660156 C 80.421875 133.898438 71.824219 108.070312 65.015625 93.230469 L 61.660156 85.9375 L 83.410156 91.023438 L 128.210938 44.726562 L 117.636719 26.121094 L 117.738281 25.953125 L 246.570312 25.953125 L 246.742188 26.222656 L 239.851562 38.28125 L 287.394531 89.585938 L 302.546875 86.148438 L 299.285156 93.238281 C 292.488281 108.070312 283.878906 133.898438 281.601562 172.660156 Z M 281.601562 172.660156 " fill-opacity="1" fill-rule="nonzero"/><path fill="#012130" d="M 128.21875 44.71875 L 83.417969 91.015625 L 61.667969 85.929688 L 61.589844 85.742188 L 68.144531 80.753906 C 81.617188 70.5 92.359375 59.464844 100.449219 49.835938 L 108.433594 53.097656 L 104.230469 45.207031 C 105.164062 44.019531 106.058594 42.867188 106.917969 41.742188 L 111.105469 43.140625 L 109.613281 38.085938 C 111.648438 35.28125 113.347656 32.761719 114.722656 30.632812 L 117.652344 26.105469 Z M 296.171875 80.761719 C 271.996094 62.359375 256.621094 41.460938 249.605469 30.640625 L 246.742188 26.214844 L 239.851562 38.273438 L 287.394531 89.578125 L 302.546875 86.140625 L 302.71875 85.75 Z M 296.171875 80.761719 " fill-opacity="1" fill-rule="nonzero"/><path fill="#edf2f8" d="M 277.945312 227.933594 L 240.226562 214.742188 C 239.761719 216.730469 239.183594 218.605469 238.5625 220.527344 C 238.089844 221.832031 237.664062 223.160156 237.105469 224.421875 C 236.578125 225.710938 236.0625 226.988281 235.449219 228.238281 C 233.144531 233.261719 230.417969 238.089844 227.226562 242.589844 C 223.996094 247.050781 220.59375 251.382812 216.609375 255.175781 C 215.640625 256.140625 214.699219 257.128906 213.621094 257.992188 L 210.515625 260.664062 C 209.511719 261.574219 208.347656 262.328125 207.253906 263.136719 C 206.148438 263.9375 205.046875 264.738281 203.921875 265.5 C 205.792969 263.503906 207.765625 261.660156 209.589844 259.675781 C 211.367188 257.640625 213.261719 255.742188 214.917969 253.621094 L 217.472656 250.519531 L 219.871094 247.300781 C 220.703125 246.257812 221.433594 245.140625 222.171875 244.035156 C 222.902344 242.910156 223.707031 241.859375 224.375 240.699219 L 226.433594 237.28125 C 227.09375 236.121094 227.699219 234.941406 228.335938 233.78125 C 228.996094 232.617188 229.523438 231.410156 230.128906 230.222656 C 230.730469 229.039062 231.25 227.820312 231.769531 226.605469 C 232.839844 224.179688 233.710938 221.683594 234.589844 219.195312 C 235.371094 216.839844 236.070312 214.375 236.5625 212.066406 L 230.914062 190.835938 C 224.949219 204.058594 215.617188 215.753906 204 224.453125 C 207.253906 219.941406 210.351562 214.539062 212.59375 209.449219 C 203.9375 219.210938 192.707031 226.878906 180.703125 232.015625 C 182.449219 228.890625 183.839844 225.246094 184.03125 221.667969 C 188.46875 218.480469 192.503906 214.4375 195.859375 210.125 C 191.085938 213.847656 185.375 217.300781 179.722656 219.640625 C 167.273438 229.855469 148.746094 243.296875 128.886719 251.585938 L 158.4375 274.285156 L 156.121094 285.84375 L 171.171875 290.992188 L 168.929688 349.167969 C 173.160156 351.40625 177.5625 353.660156 182.160156 355.953125 C 192.3125 350.902344 201.523438 345.972656 209.910156 341.144531 L 205.414062 326.007812 L 212.519531 331.636719 L 206.289062 318.367188 L 211.914062 313.140625 C 211.914062 290.222656 225.804688 277.160156 225.804688 277.160156 C 220.375 287.410156 219.171875 297.664062 219.171875 297.664062 C 229.035156 272.933594 253.382812 251.871094 253.382812 251.871094 C 258.40625 246.414062 263.789062 241.292969 269.683594 236.820312 C 264.65625 242.238281 259.820312 247.765625 255.199219 253.433594 C 250.578125 259.117188 246.199219 264.980469 242.476562 271.207031 C 238.773438 277.433594 235.542969 283.972656 233.703125 290.820312 C 233.246094 292.5625 232.894531 294.1875 232.65625 295.976562 L 232.011719 301.441406 L 230.675781 312.378906 L 230.574219 313.15625 L 229.984375 313.667969 L 223.722656 319.191406 C 224.476562 321.296875 225.183594 323.410156 225.851562 325.535156 C 226.363281 327.179688 226.839844 328.84375 227.304688 330.507812 C 279.746094 296.339844 290.230469 267.746094 291.929688 242.824219 C 285.398438 234.03125 279.226562 228.9375 277.945312 227.933594 Z M 200.691406 246.972656 C 199.230469 248.476562 197.753906 249.953125 196.195312 251.359375 C 192.351562 254.894531 188.078125 257.992188 183.605469 260.703125 C 182.464844 261.363281 181.332031 262.003906 180.179688 262.632812 C 179.007812 263.222656 177.804688 263.742188 176.617188 264.296875 L 174.824219 265.074219 C 174.21875 265.3125 173.597656 265.53125 172.972656 265.734375 C 171.730469 266.144531 170.496094 266.558594 169.246094 266.90625 C 170.304688 266.136719 171.382812 265.414062 172.453125 264.714844 L 174.0625 263.671875 L 175.621094 262.539062 C 176.65625 261.785156 177.726562 261.085938 178.746094 260.339844 C 179.746094 259.546875 180.769531 258.785156 181.78125 258.03125 C 184.792969 255.695312 187.769531 253.300781 190.648438 250.785156 C 190.308594 250.886719 189.972656 250.992188 189.625 251.09375 C 185.882812 252.183594 182.089844 253.0625 178.261719 253.722656 C 176.351562 254.019531 174.433594 254.367188 172.507812 254.578125 L 169.628906 254.933594 L 166.730469 255.160156 C 164.804688 255.324219 162.863281 255.316406 160.9375 255.347656 C 159.003906 255.324219 157.070312 255.207031 155.144531 255.058594 L 166.476562 253.117188 C 170.234375 252.484375 173.945312 251.691406 177.632812 250.785156 C 181.292969 249.820312 184.925781 248.769531 188.484375 247.535156 C 189.382812 247.230469 190.261719 246.914062 191.140625 246.570312 C 192.03125 246.25 192.902344 245.910156 193.777344 245.566406 C 195.472656 244.875 197.234375 244.105469 198.773438 243.34375 C 200.675781 241.523438 202.5625 239.675781 204.425781 237.808594 C 208.027344 234.1875 211.546875 230.484375 215.128906 226.714844 C 212.953125 231.464844 210.03125 235.808594 206.847656 239.9375 C 204.9375 242.378906 202.871094 244.71875 200.707031 246.957031 L 200.714844 246.964844 C 200.722656 246.957031 200.707031 246.972656 200.691406 246.972656 Z M 265.652344 289.816406 C 259.398438 298.355469 249.652344 305.296875 239.410156 308.011719 C 246.175781 301.75 253.226562 294.628906 258.304688 286.941406 C 253.847656 289.703125 248.921875 291.675781 243.789062 292.796875 C 256.386719 284.257812 267.109375 272.988281 275 259.988281 C 275.484375 270.5625 271.917969 281.289062 265.652344 289.816406 Z M 151.953125 285.746094 C 147.199219 283.917969 141.703125 283.445312 136.800781 284.539062 C 136.429688 280.652344 136.132812 276.890625 135.761719 272.996094 C 134.363281 276.5 133.253906 280.558594 132.242188 284.199219 C 129.835938 277.953125 128.242188 271.230469 127.722656 264.566406 C 127.09375 266.851562 126.722656 269.285156 126.09375 271.5625 C 121.667969 269.488281 117.175781 268.191406 112.363281 267.367188 C 112.9375 263.433594 114.203125 259.304688 115.902344 255.710938 C 113.878906 257.9375 111.773438 260.46875 109.746094 262.695312 C 111.648438 256.070312 114.839844 249.8125 119.050781 244.355469 L 116.425781 242.886719 L 117.683594 241.035156 C 118.519531 239.8125 119.210938 238.46875 119.785156 237.078125 L 116.53125 232.1875 C 114.226562 234.542969 111.988281 237.039062 109.855469 239.574219 C 107.183594 242.761719 104.660156 246.066406 102.296875 249.46875 C 99.898438 252.859375 97.769531 256.414062 95.789062 260.042969 C 94.183594 262.996094 92.800781 266.042969 91.582031 269.148438 L 117.332031 275.304688 L 118.574219 275.605469 L 118.863281 276.84375 L 121.074219 286.652344 C 124.238281 286.957031 127.34375 287.386719 130.457031 287.9375 C 134.058594 288.542969 137.640625 289.304688 141.1875 290.199219 C 144.722656 291.109375 148.242188 292.136719 151.679688 293.425781 C 155.097656 294.730469 158.4375 296.285156 161.535156 298.214844 C 158.035156 297.148438 154.570312 296.230469 151.074219 295.398438 C 147.84375 294.675781 144.613281 294.007812 141.351562 293.433594 C 141.082031 298.734375 141.136719 304.046875 141.539062 309.339844 C 136.738281 307.339844 131.675781 304.992188 127.179688 302.375 C 132.539062 310.132812 140.335938 316.65625 149.226562 319.8125 C 142.285156 320.308594 134.945312 319.554688 128.59375 316.6875 C 133.347656 320.785156 138.890625 324.023438 144.894531 325.835938 C 145.003906 329.453125 145.226562 332.863281 146.027344 336.285156 C 151.859375 339.808594 158.125 343.382812 164.882812 347.035156 L 166.925781 293.898438 L 151.378906 288.582031 Z M 340.675781 149.210938 C 340.636719 149.144531 340.582031 149.082031 340.535156 149.011719 C 340.390625 148.816406 340.242188 148.621094 340.09375 148.417969 C 340 148.304688 339.90625 148.1875 339.820312 148.078125 C 339.691406 147.921875 339.574219 147.773438 339.441406 147.605469 C 339.308594 147.441406 339.152344 147.277344 339.007812 147.113281 C 338.90625 146.988281 338.8125 146.878906 338.703125 146.757812 C 338.515625 146.554688 338.324219 146.351562 338.113281 146.132812 C 338.042969 146.0625 337.972656 145.972656 337.886719 145.894531 C 337.59375 145.597656 337.296875 145.308594 336.988281 145.007812 C 332.683594 140.925781 328.839844 139.449219 327.390625 139.449219 C 327.15625 139.449219 326.984375 139.488281 326.882812 139.558594 C 326.425781 140.320312 327.902344 144.59375 332.910156 149.320312 C 337.878906 154.023438 342.214844 155.269531 343 154.777344 C 343.300781 154.234375 342.695312 152.042969 340.675781 149.210938 Z M 323.886719 144.269531 C 323.699219 143.902344 323.554688 143.546875 323.421875 143.210938 L 319.5 147.347656 C 319.554688 149.167969 319.902344 154.203125 322.03125 160.554688 C 324.234375 160.921875 329.523438 161.621094 336.597656 161.542969 L 339.519531 158.457031 C 336.421875 157.429688 332.957031 155.058594 330.066406 152.324219 C 327.335938 149.742188 325.144531 146.878906 323.886719 144.269531 Z M 327.148438 171.507812 L 332.738281 165.617188 C 328.980469 165.523438 325.90625 165.226562 323.730469 164.957031 C 324.648438 167.078125 325.78125 169.277344 327.148438 171.507812 Z M 306.714844 160.84375 C 306.632812 163.578125 306.902344 174.378906 315.816406 183.480469 L 324.234375 174.597656 C 318.3125 165.359375 316.339844 156.597656 315.695312 151.367188 Z M 302.757812 165.019531 L 293.078125 175.226562 C 297.40625 177.378906 303.097656 177.859375 306.671875 177.921875 C 304.105469 173.039062 303.113281 168.398438 302.757812 165.019531 Z M 307.484375 182.042969 C 305.3125 182.042969 302.15625 181.902344 298.828125 181.289062 C 299.570312 184.609375 301.234375 190.207031 304.789062 195.105469 L 312.984375 186.460938 C 311.53125 185.003906 310.28125 183.503906 309.195312 182.003906 C 308.734375 182.027344 308.160156 182.042969 307.484375 182.042969 Z M 290.160156 178.3125 L 285.773438 182.9375 C 285.8125 185.339844 286.578125 194.140625 294.710938 205.738281 L 301.902344 198.144531 C 296.714844 191.347656 294.9375 183.34375 294.414062 180.183594 C 292.925781 179.695312 291.488281 179.082031 290.160156 178.3125 Z M 284.476562 200.421875 C 285.867188 201.726562 287.195312 202.761719 288.414062 203.578125 C 284.257812 196.535156 282.628906 190.726562 282.015625 186.894531 L 278.464844 190.648438 C 278.007812 191.410156 279.480469 195.6875 284.476562 200.421875 Z M 103.96875 223.070312 L 102.136719 223.03125 L 101.636719 217.449219 C 98.96875 217.355469 96.511719 217.019531 94.96875 216.777344 L 93.164062 220.828125 C 92.335938 233.445312 92.367188 243.632812 94.835938 253.480469 C 96.132812 251.3125 97.476562 249.191406 98.929688 247.136719 C 101.375 243.609375 103.96875 240.210938 106.71875 236.929688 C 109.117188 234.078125 111.578125 231.347656 114.226562 228.6875 L 110.523438 223.128906 C 110.296875 223.128906 110.070312 223.136719 109.832031 223.136719 C 107.898438 223.144531 105.941406 223.113281 103.96875 223.070312 Z M 251.765625 172.863281 C 252.140625 172.472656 252.566406 172.15625 253.03125 171.90625 C 256.757812 169.921875 263.160156 172.503906 269.089844 175.933594 C 269.144531 174.574219 269.199219 173.242188 269.277344 171.929688 C 269.953125 160.476562 271.210938 149.429688 273.011719 138.941406 C 267.050781 148.09375 258.910156 158.8125 248.101562 169.542969 C 243.699219 173.910156 238.6875 178.398438 233.050781 182.851562 L 240.390625 210.449219 L 240.589844 210.519531 L 252.183594 198.269531 C 251.292969 197.03125 250.445312 195.796875 249.691406 194.605469 C 244.792969 186.808594 243.667969 181.414062 246.382812 178.554688 Z M 279.980469 109.507812 C 282.175781 102.449219 284.652344 95.75 287.402344 89.578125 C 264.246094 71.671875 248.863281 52.011719 239.859375 38.28125 L 124.453125 38.28125 C 115.453125 52.019531 100.070312 71.664062 76.925781 89.585938 C 81.292969 99.394531 84.964844 110.378906 87.871094 122.296875 L 120.617188 71.375 Z M 279.980469 109.507812 " fill-opacity="1" fill-rule="nonzero"/><path fill="#889baa" d="M 105.902344 218.996094 C 176.152344 220.121094 220.308594 191.265625 245.070312 166.75 C 261.449219 150.519531 271.714844 134.03125 277.292969 123.449219 L 244.839844 117.53125 C 237.46875 132.210938 224.859375 141.390625 224.859375 141.390625 C 230.496094 133.074219 232.265625 120.214844 232.265625 120.214844 C 221.050781 143.964844 191.976562 161.007812 191.0625 161.542969 L 208.222656 156.941406 C 177.578125 178.839844 138.355469 185.363281 137.136719 185.558594 C 177.136719 169.222656 188.621094 132.550781 188.621094 132.550781 C 183.078125 141.789062 167.421875 152.050781 166.925781 152.371094 C 180.089844 137.628906 184.507812 117.804688 184.507812 117.804688 C 173.945312 140.863281 141.664062 153.722656 141.664062 153.722656 C 175.210938 119.148438 159.765625 84.972656 159.765625 84.972656 C 143.667969 105.101562 117.363281 107.394531 106.273438 107.394531 C 104.597656 107.394531 103.285156 107.339844 102.398438 107.292969 L 36.683594 209.527344 C 54.980469 214.019531 72.828125 216.957031 89.796875 218.25 L 103.167969 188.277344 Z M 188.761719 187.269531 C 193.515625 184.8125 198.261719 182.371094 202.78125 179.546875 C 205.085938 178.210938 207.316406 176.742188 209.574219 175.3125 C 211.765625 173.804688 214 172.347656 216.128906 170.746094 C 220.46875 167.675781 224.65625 164.363281 228.6875 160.867188 C 232.761719 157.429688 236.621094 153.746094 240.390625 149.976562 C 247.859375 142.347656 254.878906 134.199219 260.835938 125.183594 C 258.667969 130.148438 255.796875 134.777344 252.777344 139.300781 C 249.691406 143.769531 246.351562 148.078125 242.742188 152.152344 C 235.542969 160.316406 227.382812 167.683594 218.535156 174.074219 C 209.683594 180.464844 200.117188 185.867188 190.121094 190.183594 C 180.097656 194.453125 169.652344 197.683594 158.996094 199.566406 C 169.222656 196.023438 179.171875 192.003906 188.761719 187.269531 Z M 105.730469 138.171875 C 105.730469 138.171875 120.6875 139.238281 133.027344 132.808594 C 133.027344 132.808594 119.671875 134.394531 109.761719 129.589844 C 109.761719 129.589844 136.140625 127.171875 153.398438 117.253906 C 153.398438 117.253906 140.761719 150.496094 93.195312 159.078125 Z M 255.082031 188.929688 C 252.882812 185.425781 251.449219 182.410156 250.78125 179.898438 L 249.382812 181.375 C 248.621094 182.175781 249.015625 185.773438 253.1875 192.414062 C 257.320312 198.976562 263.871094 206.648438 271.636719 213.980469 C 276.925781 218.980469 282.316406 223.394531 287.371094 226.894531 L 289.640625 224.0625 L 289.640625 224.054688 C 284.515625 220.449219 279.1875 216.039062 274.179688 211.304688 C 266.171875 203.71875 259.390625 195.773438 255.082031 188.929688 Z M 277.703125 198.960938 C 277.167969 198.253906 276.679688 197.523438 276.25 196.800781 C 276.242188 196.769531 276.226562 196.761719 276.226562 196.761719 C 274.1875 193.308594 273.464844 189.933594 275.46875 187.8125 L 276.980469 186.226562 C 263.820312 176.167969 256.03125 174.324219 254.75 175.683594 C 253.988281 176.484375 254.382812 180.085938 258.554688 186.730469 C 262.683594 193.292969 269.238281 200.964844 277.003906 208.296875 C 277.992188 209.230469 278.960938 210.117188 279.910156 210.980469 C 287.03125 217.066406 297.179688 216.570312 297.179688 216.570312 C 287.875 212.355469 280.664062 203.183594 277.703125 198.960938 Z M 234.355469 196.183594 C 233.46875 193.277344 232.28125 189.648438 230.574219 187.136719 C 218.972656 196.875 204.511719 204.058594 190.097656 208.71875 C 183.304688 210.910156 179.988281 217.433594 173.96875 221.265625 C 174.371094 228.363281 173.238281 235.546875 170.683594 242.191406 C 181.554688 239.082031 191.199219 233.820312 199.511719 226.171875 C 197.824219 229.550781 195.90625 233.074219 194.214844 236.457031 C 211.957031 228.097656 225.773438 213.808594 234.355469 196.183594 Z M 210.320312 260.285156 C 218.296875 256.148438 225.773438 250.324219 231.503906 243.40625 C 229.953125 247.835938 228.421875 252.097656 226.179688 256.210938 C 235.21875 248.140625 243.015625 237.636719 247.757812 226.488281 C 258.320312 227.507812 268.9375 228.027344 279.558594 228.042969 C 265.738281 222.9375 252.457031 217.710938 238.640625 212.605469 C 234.503906 231.121094 224.804688 248.03125 210.320312 260.285156 Z M 143.085938 251.265625 C 152.070312 257.601562 163.367188 259.925781 174.09375 257.515625 C 170.589844 262.429688 166.132812 266.769531 161.417969 270.546875 C 171.746094 271.019531 181.601562 267.660156 190.058594 261.714844 C 198.507812 255.773438 204.605469 246.957031 207.640625 237.085938 C 187.402344 246.164062 165.277344 251.03125 143.085938 251.265625 Z M 153.941406 287.867188 C 153.878906 285.859375 153.265625 283.792969 153.203125 281.78125 C 142.765625 270.902344 131.949219 259.738281 121.511719 248.855469 C 121.007812 243.917969 120.445312 238.882812 121.183594 233.976562 C 119.429688 232.585938 117.285156 231.699219 115.53125 230.3125 C 113.117188 232.996094 111.113281 235.0625 109.296875 238.175781 C 105.351562 244.9375 102.191406 252.160156 99.90625 259.644531 C 103.230469 255.613281 106.570312 251.664062 110.5 248.226562 C 108.039062 254.578125 106.289062 261.394531 105.242188 268.121094 C 112.292969 270.03125 119.4375 272.1875 126.164062 275.023438 C 127.847656 280.472656 129.058594 285.824219 130.738281 291.265625 C 132.679688 291.746094 134.121094 291.730469 136.0625 292.210938 C 139.394531 288.210938 143.976562 286.691406 149.085938 287.6875 C 149.210938 288.761719 149.023438 289.972656 149.148438 291.039062 C 155.90625 292.804688 162.445312 294.808594 169.0625 297.039062 C 169.089844 295.269531 168.539062 294.140625 168.050781 292.445312 C 163.398438 290.96875 158.59375 289.335938 153.941406 287.867188 Z M 157.597656 322.167969 C 152.9375 319.679688 149.007812 316.28125 145.492188 312.339844 C 145.25 305.910156 145.367188 299.464844 145.855469 293.050781 C 143.90625 292.820312 142.53125 292.011719 140.582031 291.785156 C 139.605469 293.945312 138.632812 296.542969 137.65625 298.703125 C 133.859375 298.066406 129.648438 297.5 125.804688 297.226562 C 124.898438 302.542969 124.289062 308.304688 123.382812 313.617188 C 128.492188 325.953125 138.898438 336.058594 151.199219 341.269531 C 149.628906 335.949219 149.484375 330.144531 149.941406 324.609375 C 152.628906 324.65625 155.332031 323.644531 157.597656 322.167969 Z M 261.046875 244.625 C 248.410156 252.152344 236.792969 262.273438 227.839844 273.941406 C 227.863281 272.519531 228.453125 271.152344 228.878906 269.800781 C 216.378906 278.382812 207.789062 293.035156 206.703125 308.148438 C 204.804688 309.882812 203.230469 311.359375 200.847656 312.347656 C 201.132812 315.855469 202.082031 319.453125 203.402344 322.726562 C 201.335938 321.636719 199.882812 320.480469 197.816406 319.390625 C 198.789062 328.796875 201.574219 338.011719 205.972656 346.382812 C 209.542969 343.289062 213.574219 340.445312 217.882812 338.492188 C 216.585938 330.335938 217.789062 321.941406 220.183594 314.042969 C 222.582031 306.144531 226.15625 298.65625 229.71875 291.203125 C 234.191406 281.835938 238.695312 272.417969 244.785156 264.015625 C 249.660156 257.289062 255.875 251.125 261.046875 244.625 Z M 236.203125 292.90625 C 239.394531 294.613281 242.601562 295.601562 246.136719 294.847656 C 242.945312 301.058594 238.332031 306.742188 233.324219 311.609375 C 247.566406 309.726562 260.503906 303.570312 269.105469 292.082031 C 277.703125 280.597656 280.769531 266.503906 274.976562 253.378906 C 266.078125 269.816406 252.472656 283.683594 236.203125 292.90625 Z M 285.617188 203.113281 C 286.152344 204 286.984375 204.992188 288 204.777344 C 288.667969 204.644531 289.128906 203.992188 289.257812 203.328125 C 289.382812 202.660156 289.234375 201.96875 289.074219 201.308594 C 287.882812 196.394531 285.882812 191.707031 283.722656 187.128906 C 283.15625 185.9375 281.4375 183.722656 280.003906 185.292969 C 279.148438 186.234375 280.148438 188.699219 280.382812 189.730469 C 281.46875 194.460938 283.09375 198.953125 285.617188 203.113281 Z M 289.625 176.359375 C 288.933594 178.03125 287.316406 178.886719 285.789062 179.859375 C 287.785156 181.3125 290.050781 182.417969 292.425781 183.09375 C 293.195312 190.480469 295.984375 197.761719 300.976562 203.28125 C 302.210938 201.558594 302.871094 199.878906 304.113281 198.152344 C 300.101562 192.351562 297.429688 185.433594 296.566406 178.4375 C 294.476562 177.339844 291.953125 176.695312 289.625 176.359375 Z M 306.320312 180.332031 C 304.03125 180.238281 301.738281 180.132812 299.449219 180.039062 C 298.972656 180.015625 298.460938 180.007812 298.050781 180.261719 C 297.691406 180.488281 297.476562 180.894531 297.375 181.320312 C 296.992188 182.929688 298.144531 184.601562 299.640625 185.324219 C 301.132812 186.046875 302.871094 186.03125 304.519531 185.921875 C 306.21875 185.804688 310.53125 185.714844 310.964844 183.535156 C 311.4375 181.09375 307.953125 180.402344 306.320312 180.332031 Z M 304.363281 178.722656 C 305.195312 179.332031 306.484375 179.4375 307.191406 178.683594 C 307.976562 177.84375 307.671875 176.492188 307.316406 175.398438 C 305.847656 170.871094 304.699219 166.003906 302.808594 161.644531 C 297.59375 164.1875 301.132812 172.195312 302.6875 176.160156 C 303.074219 177.121094 303.539062 178.109375 304.363281 178.722656 Z M 322.597656 171.425781 C 320.6875 163.097656 318.652344 155.585938 316.742188 147.253906 C 313.738281 149.523438 310.972656 152.097656 308.496094 154.941406 C 307.34375 156.265625 306.234375 157.671875 305.558594 159.296875 C 304.386719 162.109375 304.597656 165.34375 305.527344 168.238281 C 306.453125 171.136719 308.144531 174.238281 309.722656 176.84375 C 308.914062 171.65625 309.25 166.316406 310.195312 161.144531 C 311.390625 165.5625 313.816406 169.652344 317.136719 172.808594 C 315.359375 168.152344 314.511719 163.136719 314.675781 158.152344 C 317 162.761719 319.648438 167.195312 322.597656 171.425781 Z M 331.816406 163.867188 C 330.976562 163.53125 330.058594 163.464844 329.160156 163.402344 C 327.972656 163.324219 326.785156 163.246094 325.601562 163.167969 C 324.910156 163.121094 324.199219 163.082031 323.523438 163.269531 C 322.855469 163.457031 322.226562 163.929688 322.039062 164.597656 C 321.757812 165.601562 322.558594 166.605469 323.4375 167.171875 C 325.175781 168.28125 334.542969 169.691406 333.617188 165.75 C 333.40625 164.871094 332.652344 164.203125 331.816406 163.867188 Z M 337.382812 154.648438 C 331.722656 151.886719 326.882812 147.472656 323.613281 142.089844 C 323.382812 141.710938 321.191406 143.195312 321.011719 143.53125 C 320.5 144.476562 320.898438 145.054688 321.253906 146.054688 C 321.960938 148.070312 323.09375 150.003906 324.320312 151.738281 C 326.820312 155.253906 330.175781 158.175781 334.050781 160.097656 C 335.347656 160.742188 336.769531 161.285156 338.207031 161.085938 C 339.636719 160.890625 341.027344 159.722656 340.996094 158.277344 C 340.957031 156.472656 339 155.433594 337.382812 154.648438 Z M 332.722656 150.238281 C 332.667969 148.628906 332.585938 146.863281 333.269531 145.355469 C 333.78125 144.222656 335.277344 143.25 335.210938 141.90625 C 335.085938 139.378906 330.074219 137.894531 328.089844 137.386719 C 327.496094 137.226562 326.828125 137.109375 326.292969 137.417969 C 325.449219 137.886719 325.402344 139.074219 325.5625 140.023438 C 326.261719 144.261719 328.972656 148.125 332.722656 150.238281 Z M 332.722656 150.238281 " fill-opacity="1" fill-rule="nonzero"/><path fill="#38485f" d="M 126.800781 222.523438 C 148.792969 220.960938 167.957031 216.429688 184.523438 210.179688 C 173.734375 219.6875 153.375 236.074219 130.898438 246.234375 L 122.273438 241.414062 C 125.945312 234.730469 126.667969 226.285156 126.800781 222.523438 Z M 278.261719 125.976562 C 279.039062 123.199219 279.707031 120.867188 280.484375 118.085938 C 233.382812 102.839844 184.957031 89.5 136.730469 78.28125 C 126.472656 86.644531 115.75 93.8125 104.007812 99.910156 C 101.769531 104.378906 99.371094 109.066406 97.132812 113.527344 C 111.53125 115.605469 126.441406 114.035156 140.085938 108.996094 C 136.171875 113.320312 130.621094 116.351562 125.035156 118.039062 C 131.558594 118.109375 138.097656 117.183594 144.367188 115.402344 C 130.921875 121.699219 116.011719 125.113281 101.164062 124.691406 C 103.6875 128.976562 106.847656 132.195312 111.578125 133.765625 C 108.128906 134.722656 103.609375 134.847656 100.316406 133.445312 C 94.84375 145.253906 86.953125 156.164062 79.148438 166.574219 C 101.515625 167.359375 124.875 159.125 141.453125 144.105469 C 138.710938 151.605469 133.65625 158.050781 127.453125 163.089844 C 141.546875 160.230469 155.308594 154.4375 166.878906 145.902344 C 162.933594 150.363281 159.097656 154.933594 155.152344 159.390625 C 161.457031 158.011719 167.226562 155.601562 172.8125 152.371094 C 159.6875 169.136719 140.445312 181.957031 119.980469 187.859375 C 157.21875 191.949219 196.558594 176.921875 221.828125 149.296875 C 218.964844 150.097656 215.390625 151.304688 212.527344 152.105469 C 215.304688 149.867188 218.328125 147.082031 221.105469 144.851562 C 221.464844 145.300781 221.628906 145.707031 221.992188 146.15625 C 232.171875 139.644531 241.113281 131.644531 248.527344 122.113281 C 249.675781 122.375 250.820312 122.609375 251.96875 122.835938 C 231.09375 154.703125 201.265625 180.660156 166.777344 196.898438 C 206.042969 186.273438 240.839844 159.46875 261.210938 124.304688 C 266.863281 125.042969 272.554688 125.515625 278.261719 125.976562 Z M 119.703125 215.363281 C 118.542969 211.609375 118.132812 207.847656 116.96875 204.097656 C 115.453125 207.402344 114.179688 210.730469 112.664062 214.035156 C 110.632812 200.894531 109.386719 187.773438 107.355469 174.640625 C 101.226562 185.066406 95.121094 195.5625 88.988281 205.988281 C 88.917969 200.804688 89.78125 195.246094 89.710938 190.066406 C 86.582031 195.304688 83.941406 199.886719 80.816406 205.125 C 66.117188 208.3125 49.902344 209.757812 34.882812 208.941406 C 53.195312 215.917969 71.460938 220.496094 91.0625 220.773438 C 92.03125 218.171875 93.234375 215.683594 94.191406 213.085938 C 96.335938 213 99.277344 213.320312 101.414062 213.234375 C 102.375 215.660156 103.960938 218.503906 104.921875 220.929688 C 124.964844 220.683594 144.917969 217.835938 164.496094 213.53125 C 149.730469 216.125 134.605469 217.011719 119.703125 215.363281 Z M 295.332031 212.300781 C 289.664062 207.769531 283.941406 203.183594 279.496094 197.460938 C 278.214844 195.8125 277.011719 193.992188 276.742188 191.917969 C 276.476562 189.847656 277.417969 187.492188 279.367188 186.738281 C 277.8125 185.238281 276.703125 184.027344 274.921875 182.8125 C 271.578125 185.027344 270.417969 189.59375 271.234375 193.511719 C 272.050781 197.429688 274.480469 200.820312 277.089844 203.851562 C 279.503906 206.65625 282.136719 209.285156 284.949219 211.6875 C 280.648438 210.597656 276.429688 208.585938 273.246094 205.5 C 275.0625 209.535156 277.632812 213.53125 281.128906 216.242188 C 279.917969 217.804688 278.285156 219.304688 277.074219 220.875 C 281.695312 225.191406 286.191406 229.472656 290.8125 233.789062 C 294.835938 228.160156 298.804688 222.976562 302.839844 217.347656 C 300.277344 215.96875 297.621094 214.128906 295.332031 212.300781 Z M 295.332031 212.300781 " fill-opacity="1" fill-rule="nonzero"/><path fill="#36e9fd" d="M 124.382812 220.402344 C 146.414062 219.097656 168.765625 215.007812 189.34375 207.039062 C 187.417969 211.429688 183.480469 214.570312 179.503906 217.253906 C 175.523438 219.933594 171.523438 222.050781 168.453125 225.726562 C 160.410156 227.886719 151.859375 228.875 143.675781 227.320312 C 145.492188 229.015625 147.425781 230.773438 149.730469 231.714844 C 141.171875 231.761719 132.601562 229.28125 125.394531 224.664062 C 125.089844 223.175781 124.695312 221.878906 124.382812 220.402344 Z M 36.683594 209.527344 L 55.003906 190.835938 L 55.003906 199.558594 L 76.925781 161.128906 L 66.738281 171.476562 L 94.160156 120.128906 Z M 36.683594 209.527344 " fill-opacity="1" fill-rule="nonzero"/><path fill="#012130" d="M 346.703125 149.75 C 345.414062 147.066406 343.160156 144.121094 340.351562 141.460938 C 337.554688 138.8125 334.488281 136.726562 331.722656 135.578125 C 326.84375 133.554688 324.367188 135.09375 323.328125 136.183594 L 295.261719 165.796875 C 300.0625 109.269531 319.117188 84.671875 319.3125 84.429688 L 321.332031 81.917969 L 318.589844 80.238281 C 275.226562 53.589844 255.429688 14.765625 255.230469 14.375 L 254.4375 12.8125 L 109.894531 12.8125 L 109.101562 14.375 C 108.90625 14.765625 89.152344 53.558594 45.753906 80.230469 L 43.015625 81.910156 L 45.019531 84.421875 C 45.1875 84.625 61.28125 105.375 67.601562 152.382812 L 28.894531 212.589844 L 32.71875 213.558594 C 44.472656 216.53125 56.230469 218.910156 67.664062 220.613281 C 66.46875 239.96875 66.605469 262.5 81.539062 285.890625 C 97.917969 311.53125 129.492188 335.320312 180.910156 360.757812 L 182.175781 361.378906 L 183.441406 360.757812 C 228.957031 338.246094 259.570312 316.421875 277.019531 294.046875 C 293.792969 272.542969 296.644531 252.898438 297.0625 237.980469 C 302.773438 240.304688 306.738281 240.15625 309.007812 237.722656 L 314.382812 232.054688 C 320.011719 226.117188 309.886719 212.238281 302.988281 204.121094 L 346.5625 158.136719 C 347.59375 157.058594 348.984375 154.515625 346.703125 149.75 Z M 311.894531 186.476562 L 304.875 193.875 C 302.203125 189.917969 300.699219 185.574219 299.859375 182.261719 C 302.863281 182.726562 305.613281 182.828125 307.476562 182.828125 C 307.96875 182.828125 308.417969 182.820312 308.804688 182.8125 C 309.753906 184.082031 310.785156 185.316406 311.894531 186.476562 Z M 294.40625 174.96875 L 302.1875 166.765625 C 302.609375 169.566406 303.515625 173.210938 305.375 177.097656 C 302.40625 176.960938 298.027344 176.484375 294.40625 174.96875 Z M 231.304688 313.554688 L 232.785156 301.535156 L 233.429688 296.078125 C 233.632812 294.523438 233.9375 293.011719 234.457031 291.023438 C 236.0625 285.050781 238.828125 278.878906 243.152344 271.609375 C 246.40625 266.160156 250.429688 260.546875 255.8125 253.925781 C 260.285156 248.4375 265.144531 241.960938 270.265625 236.449219 C 270.265625 236.449219 258.335938 245.332031 252.835938 251.3125 C 251.867188 252.160156 232.148438 269.597656 221.339844 290.976562 C 222.324219 287.230469 223.933594 282.363281 226.496094 277.535156 L 228.710938 273.351562 L 225.261719 276.601562 C 225.121094 276.734375 211.273438 290.035156 211.128906 312.808594 L 205.328125 318.195312 L 210.382812 328.953125 L 203.945312 323.855469 L 208.96875 340.785156 C 200.714844 345.527344 191.691406 350.332031 182.144531 355.082031 C 177.617188 352.820312 173.535156 350.730469 169.714844 348.714844 L 171.964844 290.441406 L 157.015625 285.332031 L 159.300781 273.980469 L 130.425781 251.800781 C 150.019531 243.382812 168.199219 230.113281 180.125 220.332031 C 183.714844 218.832031 187.441406 216.847656 191 214.546875 C 188.636719 217.011719 186.121094 219.210938 183.566406 221.039062 L 183.257812 221.257812 L 183.242188 221.636719 C 183.039062 225.507812 181.378906 229.210938 180.019531 231.636719 L 178.898438 233.648438 L 181.019531 232.738281 C 191.984375 228.042969 201.800781 221.503906 209.699219 213.660156 C 207.820312 217.261719 205.621094 220.867188 203.371094 223.992188 L 200.371094 228.160156 L 204.488281 225.074219 C 215.617188 216.730469 224.65625 205.714844 230.722656 193.121094 L 235.769531 212.074219 C 235.316406 214.167969 234.65625 216.539062 233.859375 218.925781 L 233.8125 219.050781 C 232.972656 221.445312 232.101562 223.921875 231.0625 226.285156 L 230.875 226.730469 C 230.425781 227.765625 229.960938 228.84375 229.445312 229.855469 C 229.207031 230.3125 228.988281 230.765625 228.765625 231.230469 C 228.421875 231.945312 228.066406 232.691406 227.667969 233.394531 C 227.40625 233.859375 227.164062 234.332031 226.914062 234.800781 C 226.535156 235.5 226.164062 236.199219 225.78125 236.875 L 223.714844 240.296875 C 223.304688 241.011719 222.839844 241.6875 222.355469 242.394531 C 222.078125 242.792969 221.804688 243.195312 221.542969 243.59375 L 221.402344 243.800781 C 220.703125 244.851562 220.035156 245.847656 219.257812 246.828125 L 216.882812 250.015625 L 214.320312 253.132812 C 213.269531 254.484375 212.082031 255.78125 210.933594 257.027344 C 210.289062 257.726562 209.644531 258.433594 209.03125 259.140625 C 208.066406 260.191406 207.027344 261.238281 206.019531 262.25 C 205.148438 263.128906 204.246094 264.03125 203.371094 264.964844 L 198.523438 270.132812 L 204.386719 266.152344 C 205.398438 265.460938 206.414062 264.730469 207.398438 264.023438 L 207.75 263.765625 C 208.066406 263.527344 208.378906 263.308594 208.703125 263.074219 C 209.496094 262.507812 210.320312 261.917969 211.058594 261.253906 L 214.148438 258.597656 C 215.097656 257.828125 215.964844 256.964844 216.789062 256.132812 L 217.175781 255.742188 C 221.480469 251.640625 225.003906 247.027344 227.886719 243.039062 C 230.992188 238.65625 233.78125 233.78125 236.171875 228.574219 C 236.785156 227.320312 237.320312 226.015625 237.835938 224.738281 C 238.253906 223.792969 238.59375 222.8125 238.921875 221.871094 C 239.046875 221.511719 239.175781 221.15625 239.316406 220.773438 C 239.828125 219.195312 240.351562 217.511719 240.792969 215.769531 L 277.570312 228.628906 C 278.9375 229.722656 284.824219 234.636719 291.121094 243.078125 C 289.484375 266.285156 280.539062 294.644531 227.769531 329.273438 C 227.40625 327.980469 227.015625 326.636719 226.597656 325.308594 C 225.992188 323.378906 225.347656 321.453125 224.632812 319.445312 Z M 149.289062 320.582031 L 153.039062 320.316406 L 149.5 319.058594 C 142.152344 316.453125 135.332031 311.453125 130 304.816406 C 133.269531 306.546875 136.980469 308.273438 141.25 310.054688 L 142.433594 310.550781 L 142.339844 309.269531 C 141.972656 304.402344 141.894531 299.386719 142.113281 294.351562 C 144.785156 294.839844 147.679688 295.429688 150.910156 296.148438 C 154.679688 297.046875 158.09375 297.964844 161.324219 298.953125 L 165.90625 300.351562 L 164.160156 345.722656 C 158.046875 342.402344 152.1875 339.058594 146.734375 335.765625 C 146.035156 332.648438 145.816406 329.515625 145.695312 325.789062 L 145.679688 325.222656 L 145.140625 325.058594 C 140.964844 323.800781 136.847656 321.769531 133.011719 319.097656 C 137.867188 320.496094 143.410156 321.007812 149.289062 320.582031 Z M 161.960938 297.539062 C 159.074219 295.734375 155.804688 294.148438 151.960938 292.679688 C 148.894531 291.535156 145.53125 290.496094 141.382812 289.429688 C 137.757812 288.519531 134.128906 287.75 130.597656 287.160156 C 127.566406 286.625 124.65625 286.226562 121.726562 285.929688 L 119.632812 276.671875 L 119.234375 274.953125 L 92.660156 268.59375 C 93.871094 265.609375 95.128906 262.925781 96.488281 260.421875 C 98.695312 256.382812 100.808594 252.953125 102.957031 249.914062 C 105.335938 246.484375 107.867188 243.179688 110.46875 240.078125 C 112.449219 237.722656 114.445312 235.484375 116.425781 233.4375 L 118.902344 237.164062 C 118.34375 238.453125 117.722656 239.597656 117.039062 240.597656 L 115.304688 243.15625 L 117.890625 244.601562 C 113.886719 249.953125 110.824219 256.117188 108.992188 262.484375 L 108.066406 265.71875 L 110.328125 263.222656 C 111.351562 262.09375 112.410156 260.875 113.441406 259.699219 C 112.582031 262.1875 111.945312 264.777344 111.585938 267.257812 L 111.476562 268.019531 L 112.230469 268.144531 C 117.238281 269 121.660156 270.351562 125.765625 272.273438 L 126.605469 272.667969 L 126.847656 271.765625 C 127.078125 270.933594 127.273438 270.078125 127.453125 269.230469 C 128.21875 274.339844 129.59375 279.53125 131.496094 284.476562 L 132.351562 286.699219 L 133.082031 284.066406 C 133.742188 281.679688 134.464844 279.066406 135.289062 276.585938 C 135.355469 277.324219 135.425781 278.0625 135.488281 278.800781 C 135.652344 280.730469 135.824219 282.652344 136.015625 284.609375 L 136.101562 285.496094 L 136.964844 285.300781 C 141.453125 284.304688 146.546875 284.65625 151.042969 286.25 L 150.476562 289.09375 L 166.117188 294.4375 L 165.90625 299.996094 Z M 73.300781 221.429688 C 78.433594 222.105469 83.410156 222.640625 88.125 223.015625 C 87.371094 236.105469 87.628906 247.191406 91.140625 258.394531 C 89.359375 261.730469 87.722656 265.40625 86.144531 269.628906 L 85.042969 272.605469 L 98.375 275.785156 C 96.707031 278.886719 94.019531 284.167969 91.511719 290.285156 C 74.433594 268.128906 71.800781 247.394531 73.300781 221.429688 Z M 250.988281 18.511719 C 255.136719 26 274.976562 59.179688 313.023438 83.472656 C 307.671875 91.574219 292.328125 119.117188 289.074219 172.339844 L 279.761719 182.167969 C 278.316406 181.078125 276.289062 179.59375 273.945312 178.039062 C 273.984375 176.058594 274.0625 174.152344 274.179688 172.21875 C 275.070312 156.996094 277.011719 142.441406 279.949219 128.960938 C 284.636719 120.511719 286.859375 114.765625 287.261719 113.691406 L 288.351562 110.691406 L 284.988281 109.890625 C 287.195312 102.886719 289.734375 96.238281 292.535156 90.121094 L 293.46875 88.066406 L 291.660156 86.691406 C 266.527344 67.542969 250.609375 45.878906 243.363281 34.675781 L 242.523438 33.382812 L 121.789062 33.382812 L 120.945312 34.675781 C 113.699219 45.878906 97.792969 67.542969 72.648438 86.691406 L 70.839844 88.066406 L 71.785156 90.128906 C 76.734375 100.910156 80.824219 113.304688 83.925781 126.976562 L 72.253906 145.125 C 66.492188 109.152344 55.292969 89.5625 51.277344 83.480469 C 89.34375 59.1875 109.179688 26.007812 113.332031 18.519531 L 250.988281 18.519531 Z M 281.53125 188.550781 C 282.167969 191.621094 283.433594 195.78125 285.925781 200.664062 C 285.625 200.398438 285.320312 200.132812 285.019531 199.847656 C 280.382812 195.453125 279.148438 191.832031 279.171875 191.039062 Z M 127.566406 223.253906 C 146.308594 221.863281 164.191406 218.210938 180.800781 212.371094 C 169.875 221.691406 151.238281 236.105469 130.945312 245.355469 L 123.34375 241.097656 C 126.589844 234.714844 127.375 226.972656 127.566406 223.253906 Z M 124.875 39.066406 L 239.433594 39.066406 C 248.269531 52.46875 263.515625 71.992188 286.433594 89.832031 C 283.910156 95.5625 281.5625 101.867188 279.457031 108.578125 L 120.253906 70.46875 L 88.195312 120.332031 C 85.40625 109.269531 81.945312 99.015625 77.890625 89.832031 C 100.832031 71.953125 116.066406 52.445312 124.875 39.066406 Z M 271.644531 142.410156 C 270.148438 151.863281 269.097656 161.761719 268.492188 171.882812 C 268.445312 172.785156 268.398438 173.695312 268.355469 174.613281 C 261.171875 170.632812 255.898438 169.488281 252.660156 171.214844 C 252.125 171.5 251.640625 171.867188 251.199219 172.316406 L 245.808594 178.007812 C 242.828125 181.148438 243.914062 186.871094 249.023438 195.011719 C 249.722656 196.128906 250.5 197.25 251.160156 198.191406 L 240.839844 209.097656 L 233.929688 183.140625 C 239.117188 179.027344 244.0625 174.640625 248.644531 170.09375 C 257.195312 161.605469 264.914062 152.308594 271.644531 142.410156 Z M 93.933594 221.007812 L 95.441406 217.632812 C 97.359375 217.921875 99.199219 218.109375 100.910156 218.195312 L 101.414062 223.785156 L 103.945312 223.839844 C 105.566406 223.875 107.695312 223.914062 109.824219 223.914062 C 109.917969 223.914062 110.003906 223.914062 110.101562 223.914062 L 113.210938 228.582031 C 110.886719 230.945312 108.558594 233.515625 106.105469 236.417969 C 103.378906 239.675781 100.746094 243.132812 98.277344 246.671875 C 97.25 248.132812 96.21875 249.695312 95.152344 251.414062 C 93.128906 242.140625 93.195312 232.476562 93.933594 221.007812 Z M 287.222656 225.828125 C 282.332031 222.390625 277.144531 218.109375 272.175781 213.40625 C 264.480469 206.144531 257.980469 198.539062 253.855469 191.988281 C 249.5625 185.175781 249.699219 182.261719 249.957031 181.910156 L 250.429688 181.414062 C 251.222656 183.722656 252.558594 186.382812 254.421875 189.34375 C 258.769531 196.261719 265.597656 204.261719 273.648438 211.867188 C 278.503906 216.460938 283.636719 220.71875 288.519531 224.210938 Z M 102.828125 108.09375 C 103.90625 108.148438 105.070312 108.171875 106.296875 108.171875 C 116.914062 108.171875 143.078125 106.035156 159.546875 86.503906 C 160.550781 89.273438 162.792969 96.613281 162.523438 106.4375 C 162.210938 118.015625 158.242188 135.523438 141.113281 153.175781 L 138.558594 155.8125 L 141.972656 154.453125 C 142.269531 154.335938 168.953125 143.515625 181.789062 124.273438 C 179.382812 131.308594 174.582031 142.636719 166.359375 151.847656 L 162.492188 156.171875 L 167.375 153.023438 C 167.507812 152.9375 178.628906 145.714844 185.664062 137.792969 C 180.71875 148.589844 166.800781 172.597656 136.855469 184.828125 L 130.519531 187.421875 L 137.28125 186.335938 C 138.921875 186.070312 177.859375 179.617188 208.695312 157.585938 L 212.222656 155.066406 L 195.890625 159.445312 C 204.046875 154.046875 220.929688 141.5625 230.480469 125.292969 C 229.425781 129.738281 227.476562 136.160156 224.222656 140.957031 L 221.703125 144.6875 L 225.339844 142.03125 C 225.464844 141.9375 237.878906 132.800781 245.289062 118.417969 L 276.105469 124.039062 C 270.304688 134.847656 260.230469 150.636719 244.527344 166.199219 C 220.019531 190.464844 176.242188 219.125 106.632812 218.226562 L 103.703125 185.199219 L 89.3125 217.425781 C 72.929688 216.148438 55.65625 213.320312 37.9375 209.027344 Z M 259.230469 186.320312 C 254.941406 179.5 255.074219 176.585938 255.332031 176.234375 C 256.023438 175.558594 262.605469 176.375 275.816406 186.328125 L 274.914062 187.277344 C 272.859375 189.445312 273.082031 192.941406 275.535156 197.125 L 275.582031 197.21875 C 276.050781 198.003906 276.554688 198.757812 277.058594 199.425781 C 279.496094 202.902344 285.625 210.839844 293.6875 215.636719 C 290.191406 215.253906 284.722656 214.058594 280.4375 210.410156 C 279.488281 209.550781 278.527344 208.671875 277.554688 207.746094 C 269.835938 200.445312 263.328125 192.835938 259.230469 186.320312 Z M 290.308594 179.292969 C 291.355469 179.859375 292.503906 180.355469 293.722656 180.777344 C 294.324219 184.144531 296.109375 191.558594 300.882812 198.082031 L 294.8125 204.488281 C 287.636719 193.929688 286.679688 185.914062 286.578125 183.234375 Z M 307.492188 161.160156 L 315.140625 153.085938 C 316.003906 158.613281 318.132812 166.347656 323.234375 174.496094 L 315.808594 182.332031 C 308.027344 173.980469 307.4375 164.386719 307.492188 161.160156 Z M 330.960938 166.347656 L 327.289062 170.21875 C 326.464844 168.804688 325.695312 167.359375 325.011719 165.902344 C 326.976562 166.113281 328.972656 166.261719 330.960938 166.347656 Z M 327.605469 140.257812 C 328.925781 140.40625 332.421875 141.789062 336.476562 145.628906 C 336.761719 145.902344 337.042969 146.171875 337.320312 146.460938 L 337.53125 146.679688 C 337.726562 146.894531 337.925781 147.089844 338.128906 147.324219 C 338.214844 147.410156 338.285156 147.488281 338.402344 147.640625 L 338.554688 147.804688 C 338.648438 147.90625 338.734375 148.007812 338.820312 148.109375 L 340.03125 149.671875 C 341.5625 151.824219 342.121094 153.386719 342.246094 154.101562 C 341.042969 153.957031 337.632812 152.742188 333.4375 148.769531 C 329.230469 144.796875 327.816406 141.4375 327.605469 140.257812 Z M 320.300781 147.65625 L 323.179688 144.617188 C 324.484375 147.332031 326.738281 150.269531 329.53125 152.898438 C 332.320312 155.535156 335.394531 157.632812 338.144531 158.78125 L 336.265625 160.765625 C 329.671875 160.8125 324.8125 160.207031 322.636719 159.863281 C 320.78125 154.164062 320.382812 149.632812 320.300781 147.65625 Z M 190.433594 190.898438 C 200.558594 186.523438 210.171875 181.078125 218.996094 174.703125 C 227.972656 168.214844 236.15625 160.804688 243.332031 152.671875 C 246.859375 148.683594 250.265625 144.332031 253.4375 139.734375 C 256.160156 135.648438 258.917969 129.589844 261.226562 124.3125 C 261.226562 124.3125 248.210938 140.863281 239.851562 149.414062 C 235.433594 153.824219 231.730469 157.273438 228.1875 160.261719 C 224.082031 163.820312 219.878906 167.125 215.664062 170.101562 C 214.125 171.261719 212.496094 172.371094 210.917969 173.4375 C 210.320312 173.839844 209.730469 174.246094 209.164062 174.640625 L 207.585938 175.644531 C 205.894531 176.726562 204.152344 177.84375 202.375 178.871094 C 197.980469 181.617188 193.257812 184.058594 188.699219 186.414062 L 188.421875 186.558594 C 179.390625 191.015625 169.945312 195.765625 159.003906 199.550781 C 158.996094 199.558594 180.058594 195.328125 190.433594 190.898438 Z M 201.046875 247.734375 L 201.582031 247.183594 C 203.796875 244.867188 205.738281 242.644531 207.492188 240.398438 L 207.492188 240.390625 C 211.261719 235.492188 213.921875 231.238281 215.863281 227.011719 L 217.828125 222.726562 L 213.847656 226.902344 C 210.445312 230.484375 207.230469 233.859375 203.882812 237.226562 C 202.003906 239.113281 200.140625 240.941406 198.335938 242.667969 C 196.933594 243.351562 195.269531 244.089844 193.5 244.8125 C 192.636719 245.15625 191.769531 245.496094 190.867188 245.816406 C 190.019531 246.15625 189.144531 246.460938 188.25 246.765625 C 185.097656 247.859375 181.664062 248.886719 177.464844 249.992188 C 173.574219 250.953125 169.945312 251.707031 166.367188 252.316406 L 148.730469 255.339844 L 155.105469 255.820312 C 156.953125 255.960938 158.933594 256.085938 160.96875 256.109375 L 162.070312 256.09375 C 163.625 256.078125 165.230469 256.054688 166.808594 255.921875 L 169.742188 255.695312 L 172.609375 255.347656 C 174.054688 255.191406 175.5 254.957031 176.910156 254.726562 C 177.402344 254.648438 177.898438 254.5625 178.410156 254.484375 C 181.386719 253.972656 184.398438 253.316406 187.394531 252.523438 C 185.570312 254.035156 183.582031 255.628906 181.324219 257.390625 C 180.328125 258.136719 179.296875 258.90625 178.292969 259.699219 C 177.742188 260.097656 177.175781 260.492188 176.609375 260.882812 C 176.128906 261.210938 175.644531 261.550781 175.164062 261.894531 L 173.648438 263.003906 L 172.027344 264.054688 C 170.996094 264.730469 169.890625 265.460938 168.789062 266.269531 L 165.246094 268.84375 L 169.457031 267.660156 C 170.652344 267.320312 171.855469 266.929688 173.019531 266.542969 L 173.207031 266.480469 C 173.914062 266.246094 174.535156 266.027344 175.125 265.796875 L 176.933594 265.011719 C 177.339844 264.816406 177.75 264.636719 178.167969 264.449219 C 178.953125 264.085938 179.738281 263.726562 180.53125 263.332031 C 181.6875 262.703125 182.828125 262.054688 183.988281 261.386719 C 188.730469 258.519531 193.003906 255.347656 196.699219 251.957031 C 198.074219 250.714844 199.449219 249.382812 201.046875 247.734375 Z M 154.128906 117.546875 L 154.917969 115.488281 L 153.007812 116.585938 C 136.101562 126.300781 109.949219 128.796875 109.691406 128.820312 L 106.878906 129.078125 L 109.425781 130.3125 C 116.042969 133.515625 124.035156 133.945312 128.847656 133.851562 C 117.753906 138.179688 105.917969 137.410156 105.792969 137.402344 L 105.3125 137.371094 L 91.636719 160.175781 L 93.34375 159.871094 C 140.785156 151.296875 154.003906 117.882812 154.128906 117.546875 Z M 266.289062 290.277344 C 272.804688 281.40625 276.265625 270.351562 275.792969 259.949219 L 275.675781 257.375 L 274.339844 259.578125 C 266.535156 272.441406 255.820312 283.707031 243.363281 292.144531 L 239.992188 294.429688 L 243.96875 293.558594 C 248.085938 292.664062 252.007812 291.242188 255.679688 289.335938 C 250.554688 296.308594 244.109375 302.589844 238.882812 307.433594 L 236.570312 309.574219 L 239.621094 308.765625 C 249.816406 306.066406 259.789062 299.15625 266.289062 290.277344 Z M 266.289062 290.277344 " fill-opacity="1" fill-rule="nonzero"/></svg>